<svg width="24" height="24" viewBox="0 0 24 24" fill="none" xmlns="http://www.w3.org/2000/svg">
<g clip-path="url(#clip0_1463_33529)">
<path d="M13.25 5C13.25 5.69036 12.6904 6.25 12 6.25C11.3096 6.25 10.75 5.69036 10.75 5C10.75 4.30964 11.3096 3.75 12 3.75C12.6904 3.75 13.25 4.30964 13.25 5Z" fill="white" stroke="white" stroke-width="1.5"/>
<path d="M12 14C13.1046 14 14 13.1046 14 12C14 10.8954 13.1046 10 12 10C10.8954 10 10 10.8954 10 12C10 13.1046 10.8954 14 12 14Z" fill="white"/>
<path d="M12 21C13.1046 21 14 20.1046 14 19C14 17.8954 13.1046 17 12 17C10.8954 17 10 17.8954 10 19C10 20.1046 10.8954 21 12 21Z" fill="white"/>
</g>
<defs>
<clipPath id="clip0_1463_33529">
<rect width="24" height="24" fill="white"/>
</clipPath>
</defs>
</svg>
