<svg width="42" height="42" viewBox="0 0 42 42" fill="none" xmlns="http://www.w3.org/2000/svg">
<rect width="42" height="42" rx="21" fill="#F9E2E2"/>
<path d="M18.75 12C18.3358 12 18 12.3358 18 12.75V13.5H24V12.75C24 12.3358 23.6642 12 23.25 12H18.75ZM25.5 13.5H29.25C29.6642 13.5 30 13.8358 30 14.25C30 14.6642 29.6642 15 29.25 15H28.5V29.25C28.5 30.4926 27.4926 31.5 26.25 31.5H15.75C14.5074 31.5 13.5 30.4926 13.5 29.25V15H12.75C12.3358 15 12 14.6642 12 14.25C12 13.8358 12.3358 13.5 12.75 13.5H16.5V12.75C16.5 11.5074 17.5074 10.5 18.75 10.5H23.25C24.4926 10.5 25.5 11.5074 25.5 12.75V13.5ZM15 15V29.25C15 29.6642 15.3358 30 15.75 30H26.25C26.6642 30 27 29.6642 27 29.25V15H15ZM18.75 18C19.1642 18 19.5 18.3358 19.5 18.75V26.25C19.5 26.6642 19.1642 27 18.75 27C18.3358 27 18 26.6642 18 26.25V18.75C18 18.3358 18.3358 18 18.75 18ZM24 18.75C24 18.3358 23.6642 18 23.25 18C22.8358 18 22.5 18.3358 22.5 18.75V26.25C22.5 26.6642 22.8358 27 23.25 27C23.6642 27 24 26.6642 24 26.25V18.75Z" fill="#E23737"/>
</svg>
